<?xml version="1.0" encoding="UTF-8"?>
<svg width="280px" height="176px" viewBox="0 0 280 176" version="1.1" xmlns="http://www.w3.org/2000/svg" xmlns:xlink="http://www.w3.org/1999/xlink">
    <!-- Generator: Sketch 55.2 (78181) - https://sketchapp.com -->
    <title>sun@3x</title>
    <desc>Created with Sketch.</desc>
    <defs>
        <radialGradient cx="50%" cy="50%" fx="50%" fy="50%" r="43.4447027%" id="radialGradient-1">
            <stop stop-color="#EBD817" offset="0%"></stop>
            <stop stop-color="#FFD92D" offset="100%"></stop>
        </radialGradient>
        <linearGradient x1="23.6971227%" y1="17.7853468%" x2="76.1432927%" y2="94.0786966%" id="linearGradient-2">
            <stop stop-color="#FED920" offset="0%"></stop>
            <stop stop-color="#F39800" offset="100%"></stop>
        </linearGradient>
    </defs>
    <g id="sun" stroke="none" stroke-width="1" fill="none" fill-rule="evenodd">
        <rect fill="#FFFFFF" x="0" y="0" width="280" height="176"></rect>
        <g id="编组" transform="translate(55.000000, 3.000000)">
            <path d="M81.7238011,130.749087 L73.979824,137.466086 C71.8937866,139.275481 68.735915,139.051218 66.9265203,136.96518 C66.4557748,136.422461 66.1075142,135.78467 65.9054542,135.095237 L63.0222899,125.257828 C62.3224123,122.869833 59.9729985,121.359957 57.5100622,121.715334 L47.3639303,123.179323 C44.6308113,123.573686 42.0954865,121.67775 41.7011238,118.944631 C41.5985235,118.233562 41.6503643,117.508734 41.8531158,116.819505 L44.7461486,106.984993 C45.4484217,104.597701 44.28827,102.057323 42.0241842,101.024722 L32.6972227,96.7708952 C30.1847682,95.6250186 29.0769379,92.6593552 30.2228146,90.1469006 C30.5209343,89.4932419 30.9564174,88.9115046 31.4996083,88.4413039 L39.2503207,81.7320779 C41.1317778,80.1034379 41.529228,77.3391105 40.1828241,75.2463741 L34.6362774,66.6252909 C33.1421739,64.3029827 33.8135664,61.2091696 36.1358747,59.715066 C36.7400635,59.326349 37.4209261,59.0724004 38.1320971,58.9705136 L48.2796927,57.516705 C50.7429844,57.1637983 52.5718491,55.053176 52.5706007,52.5647332 L52.5654582,42.313527 C52.5640729,39.5521036 54.8015259,37.3124046 57.5629493,37.3110193 C58.2813816,37.3106589 58.9914547,37.4651259 59.644814,37.7639013 L68.9675029,42.0270841 C71.2305514,43.0619561 73.9101789,42.2751465 75.2544825,40.1810603 L80.7923768,31.5544166 C82.2841496,29.2306104 85.3772875,28.5561142 87.7010937,30.047887 C88.3056722,30.4359977 88.8195126,30.949838 89.2076232,31.5544166 L94.7455175,40.1810603 C96.0898211,42.2751465 98.7694486,43.0619561 101.032497,42.0270841 L110.355186,37.7639013 C112.86649,36.6155044 115.833263,37.7203587 116.98166,40.2316623 C117.280435,40.8850216 117.434902,41.5950946 117.434542,42.313527 L117.429399,52.5647332 C117.428151,55.053176 119.257016,57.1637983 121.720307,57.516705 L131.867903,58.9705136 C134.601416,59.3621339 136.499895,61.8955552 136.108275,64.6290685 C136.006388,65.3402395 135.75244,66.0211021 135.363723,66.6252909 L129.817176,75.2463741 C128.470772,77.3391105 128.868222,80.1034379 130.749679,81.7320779 L138.500392,88.4413039 C140.588243,90.2486047 140.815675,93.4062498 139.008374,95.4941015 C138.538173,96.0372924 137.956436,96.4727755 137.302777,96.7708952 L127.975816,101.024722 C125.71173,102.057323 124.551578,104.597701 125.253851,106.984993 L128.146884,116.819505 C128.926196,119.468681 127.410372,122.248019 124.761196,123.027331 C124.071967,123.230083 123.347138,123.281924 122.63607,123.179323 L112.489938,121.715334 C110.027001,121.359957 107.677588,122.869833 106.97771,125.257828 L104.094546,135.095237 C103.317892,137.745194 100.540076,139.263806 97.8901189,138.487152 C97.2006866,138.285092 96.5628949,137.936832 96.020176,137.466086 L88.2761989,130.749087 C86.3963768,129.11856 83.6036232,129.11856 81.7238011,130.749087 Z" id="星形" fill="url(#radialGradient-1)" transform="translate(85.000000, 85.000000) rotate(41.000000) translate(-85.000000, -85.000000) "></path>
            <circle id="椭圆形" stroke="#FFDB00" fill="url(#linearGradient-2)" cx="85" cy="85" r="41"></circle>
            <ellipse id="椭圆形" fill="#FFA18D" cx="58.5" cy="95.5" rx="9.5" ry="5.5"></ellipse>
            <ellipse id="椭圆形" fill="#FD947D" cx="110.5" cy="95.5" rx="9.5" ry="5.5"></ellipse>
            <g id="矩形" transform="translate(46.652174, 74.914062)">
                <g id="蒙版" transform="translate(0.000000, 0.276414)" fill="#221F21">
                    <path d="M7.10542736e-15,-6.39488462e-14 L38.3930027,-6.39488462e-14 L32.6954787,10.0103415 C29.5376529,15.5585259 23.6449421,18.984933 17.2610394,18.984933 C11.0597773,18.984933 5.51927966,15.1101667 3.39164291,9.28532214 L7.10542736e-15,-6.39488462e-14 Z M77.3495245,-6.39488462e-14 L73.9578815,9.28532214 C71.8302448,15.1101667 66.2897472,18.984933 60.0884851,18.984933 C53.7045823,18.984933 47.8118715,15.5585259 44.6540458,10.0103415 L38.9565217,-6.39488462e-14 L77.3495245,-6.39488462e-14 Z" id="形状结合"></path>
                </g>
                <rect fill="#FFFFFF" opacity="0.221307664" transform="translate(24.347826, 7.085938) rotate(17.000000) translate(-24.347826, -7.085938) " x="23.3478261" y="-27.9140625" width="2" height="70"></rect>
                <rect fill="#FFFFFF" opacity="0.221307664" transform="translate(71.347826, 8.085938) rotate(17.000000) translate(-71.347826, -8.085938) " x="70.3478261" y="-26.9140625" width="2" height="70"></rect>
            </g>
            <path d="M46.0808691,70.2624711 C63.6387776,71.738284 76.6118212,72.4761905 85,72.4761905 C93.3881788,72.4761905 106.361222,71.738284 123.919131,70.2624711 C125.483628,70.1309614 126.858508,71.2926339 126.990011,72.857132 C126.996667,72.9363262 127,73.0157647 127,73.0952381 L127,73.1904762 C127,74.8473304 125.656854,76.1904762 124,76.1904762 L46,76.1904762 C44.3431458,76.1904762 43,74.8473304 43,73.1904762 L43,73.0952381 C43,71.5252231 44.2727486,70.2524744 45.8427636,70.2524744 C45.9222371,70.2524744 46.0016756,70.2558071 46.0808691,70.2624711 Z" id="矩形" fill="#221F21"></path>
            <path d="M80,100.2259 C80.7698624,101.841807 82.8534147,103 85.3029516,103 C87.8652005,103 90.0270093,101.73277 90.703739,100" id="路径" stroke="#E9804F" stroke-width="3" stroke-linecap="round"></path>
        </g>
    </g>
</svg>